<?xml version="1.0" encoding="UTF-8"?>
<svg xmlns="http://www.w3.org/2000/svg" xmlns:xlink="http://www.w3.org/1999/xlink" width="24" height="24" viewBox="0 0 24 24" version="1.1">
<g id="surface1">
<path style=" stroke:none;fill-rule:evenodd;fill:rgb(0%,0%,0%);fill-opacity:1;" d="M 18.03125 1.035156 C 19.40625 -0.339844 21.640625 -0.34375 23.023438 1.019531 C 24.402344 2.386719 24.410156 4.605469 23.035156 5.976562 L 17.007812 11.992188 L 23.042969 18.011719 C 24.402344 19.371094 24.386719 21.578125 23 22.9375 C 21.617188 24.296875 19.386719 24.292969 18.027344 22.929688 L 12.035156 16.953125 L 6.027344 22.941406 C 4.65625 24.316406 2.421875 24.320312 1.039062 22.957031 C -0.339844 21.589844 -0.347656 19.371094 1.027344 18 L 7.054688 11.984375 L 1.019531 5.964844 C -0.34375 4.601562 -0.324219 2.398438 1.0625 1.039062 C 2.445312 -0.320312 4.671875 -0.316406 6.035156 1.042969 L 12.027344 7.023438 Z M 18.03125 1.035156 "/>
</g>
</svg>
